<svg width="200" height="60" viewBox="0 0 200 60" xmlns="http://www.w3.org/2000/svg">
  <defs>
    <!-- Gradient for the logo text -->
    <linearGradient id="dearlyGradient" x1="0%" y1="0%" x2="100%" y2="0%">
      <stop offset="0%" style="stop-color:#f43f5e;stop-opacity:1" />
      <stop offset="50%" style="stop-color:#ec4899;stop-opacity:1" />
      <stop offset="100%" style="stop-color:#a855f7;stop-opacity:1" />
    </linearGradient>
    
    <!-- Gradient for the heart accent -->
    <linearGradient id="heartGradient" x1="0%" y1="0%" x2="100%" y2="100%">
      <stop offset="0%" style="stop-color:#f43f5e;stop-opacity:1" />
      <stop offset="100%" style="stop-color:#ec4899;stop-opacity:1" />
    </linearGradient>
  </defs>
  
  <!-- Subtle heart accent integrated into the D -->
  <path d="M 8 20 Q 8 12, 12 8 Q 16 4, 22 4 Q 28 4, 32 8 Q 36 12, 36 20 Q 36 28, 32 32 Q 28 36, 22 36 Q 18 36, 15 34 L 15 30 Q 18 32, 22 32 Q 26 32, 28 30 Q 30 28, 30 24 Q 30 20, 28 18 Q 26 16, 22 16 Q 20 16, 18 17 L 18 13 Q 20 12, 22 12 Q 26 12, 28 14 Q 30 16, 30 20 Q 30 24, 28 26 Q 26 28, 22 28 Q 18 28, 15 26 Z" 
        fill="url(#heartGradient)" 
        opacity="0.3"
        transform="translate(2, 2) scale(0.4)"/>
  
  <!-- Elegant "Dearly" text with serif styling -->
  <text x="10" y="38" 
        font-family="Georgia, 'Times New Roman', serif" 
        font-size="32" 
        font-weight="bold" 
        fill="url(#dearlyGradient)"
        letter-spacing="1">
    Dearly
  </text>
</svg>

